<?xml version="1.0" standalone="no"?>
<!DOCTYPE svg PUBLIC "-//W3C//DTD SVG 20010904//EN"
 "http://www.w3.org/TR/2001/REC-SVG-20010904/DTD/svg10.dtd">
<svg version="1.0" xmlns="http://www.w3.org/2000/svg"
 width="512.000000pt" height="512.000000pt" viewBox="0 0 512.000000 512.000000"
 preserveAspectRatio="xMidYMid meet">

<g transform="translate(0.000000,512.000000) scale(0.100000,-0.100000)"
fill="#000000" stroke="none">
<path d="M1320 3830 c-668 -357 -1220 -657 -1227 -666 -17 -23 -17 -65 0 -88
7 -9 168 -100 357 -201 l345 -184 3 -505 2 -506 79 0 78 0 6 -41 c3 -23 18
-68 34 -99 l29 -58 -18 -68 c-31 -119 -48 -288 -48 -467 0 -133 3 -177 14
-193 21 -30 166 -94 241 -107 48 -8 82 -8 130 0 75 13 220 77 241 107 11 16
14 60 14 193 0 179 -17 348 -48 467 l-18 68 31 61 c26 53 30 72 30 142 0 68
-5 88 -28 132 -36 69 -88 120 -154 150 l-53 24 0 200 0 200 63 -35 c308 -170
1121 -596 1137 -596 12 0 362 182 778 404 416 222 772 411 790 420 l32 17 -2
-443 -3 -443 -115 -78 c-285 -193 -663 -343 -1010 -401 -292 -48 -643 -48
-940 0 -83 13 -326 72 -371 89 -12 4 -20 -11 -39 -70 -13 -41 -22 -76 -19 -78
22 -19 327 -89 494 -114 170 -25 639 -25 810 0 325 48 613 139 897 283 131 67
369 218 426 272 l32 30 0 520 0 520 343 182 c188 100 350 191 360 202 22 26
22 70 -1 96 -24 29 -2437 1312 -2464 1311 -13 0 -570 -292 -1238 -649z m2350
-112 c611 -326 1110 -595 1110 -598 0 -3 -499 -272 -1110 -597 l-1109 -592
-563 300 c-310 165 -566 303 -570 307 -4 4 215 125 485 269 l492 261 55 -14
c111 -29 242 -6 327 56 49 36 93 117 93 170 0 53 -44 134 -93 170 -54 39 -153
70 -227 70 -74 0 -173 -31 -227 -70 -48 -35 -93 -117 -93 -167 0 -19 7 -49 14
-68 l15 -35 -42 -24 c-68 -39 -963 -515 -974 -518 -11 -3 -913 473 -913 482 0
4 2203 1185 2218 1189 1 1 502 -265 1112 -591z m-1027 -372 c21 -8 47 -22 58
-32 62 -56 -60 -128 -185 -110 -53 8 -110 44 -114 72 -6 41 75 83 158 83 25 0
62 -6 83 -13z m-1443 -1113 l0 -242 -53 -24 c-83 -38 -150 -115 -178 -207 -4
-14 -8 170 -8 408 l-1 433 120 -63 120 -63 0 -242z m143 -407 c103 -43 128
-177 48 -257 -65 -65 -157 -65 -222 0 -124 123 13 325 174 257z m-63 -461 c30
0 69 4 86 8 30 8 31 8 42 -45 21 -95 32 -220 32 -350 l0 -128 -42 -22 c-34
-18 -60 -23 -118 -23 -58 0 -84 5 -117 23 l-43 22 0 128 c0 130 11 255 32 350
11 53 12 53 42 45 17 -4 56 -8 86 -8z"/>
</g>
</svg>
