<?xml version="1.0" standalone="no"?>
<!DOCTYPE svg PUBLIC "-//W3C//DTD SVG 20010904//EN"
 "http://www.w3.org/TR/2001/REC-SVG-20010904/DTD/svg10.dtd">
<svg version="1.0" xmlns="http://www.w3.org/2000/svg"
 width="512.000000pt" height="512.000000pt" viewBox="0 0 512.000000 512.000000"
 preserveAspectRatio="xMidYMid meet">

<g transform="translate(0.000000,512.000000) scale(0.100000,-0.100000)"
fill="#000000" stroke="none">
<path d="M4077 5110 c-378 -68 -668 -349 -743 -719 -21 -109 -15 -305 14 -401
l19 -65 -1084 -1086 -1085 -1086 -66 20 c-99 28 -294 34 -403 13 -340 -69
-609 -322 -701 -661 -29 -110 -31 -316 -4 -429 23 -94 41 -119 85 -119 29 0
63 30 324 290 l292 291 170 -47 170 -46 46 -170 46 -170 -295 -297 c-276 -278
-294 -298 -288 -325 10 -41 35 -57 122 -79 113 -27 319 -25 429 4 101 28 241
96 326 160 154 117 270 292 325 492 27 97 25 359 -3 452 l-20 66 1086 1085
1086 1084 65 -19 c83 -25 270 -34 369 -19 160 25 323 100 449 208 124 106 239
291 284 458 29 110 31 316 4 429 -23 94 -41 119 -85 119 -29 0 -63 -30 -324
-290 l-292 -291 -170 47 -170 46 -46 170 -47 170 291 292 c256 257 290 295
290 323 0 43 -19 59 -104 81 -84 23 -284 33 -362 19z m245 -138 c14 -6 -35
-60 -242 -267 -198 -198 -260 -266 -260 -284 0 -14 25 -120 56 -235 40 -150
63 -217 78 -232 15 -15 84 -38 232 -78 116 -31 222 -56 235 -56 18 0 87 63
284 260 207 207 261 256 267 242 12 -32 8 -182 -8 -260 -9 -47 -35 -118 -65
-181 -44 -89 -63 -116 -137 -191 -98 -98 -186 -155 -307 -197 -74 -26 -91 -28
-235 -28 -142 1 -162 3 -237 28 -61 20 -87 25 -105 18 -28 -11 -2263 -2248
-2272 -2275 -3 -10 6 -55 21 -100 25 -74 27 -94 28 -236 0 -144 -2 -161 -28
-235 -42 -121 -99 -209 -196 -305 -94 -94 -188 -150 -316 -190 -76 -23 -238
-37 -300 -26 l-38 8 261 261 c198 198 262 268 262 286 0 14 -25 119 -56 235
-40 149 -63 217 -78 232 -15 15 -83 38 -232 78 -116 31 -222 56 -235 56 -18 0
-87 -63 -284 -260 -207 -207 -261 -256 -267 -242 -12 32 -8 182 8 260 9 47 35
118 65 181 44 89 63 116 137 191 98 98 186 155 307 197 74 26 91 28 235 28
142 -1 162 -3 236 -28 45 -15 90 -24 100 -21 27 9 2264 2244 2275 2272 7 18 2
44 -18 105 -25 75 -27 95 -28 237 0 144 2 161 28 235 42 121 99 209 197 307
75 74 102 93 191 137 57 27 136 57 174 65 72 15 237 20 267 8z"/>
<path d="M2300 4842 c-15 -12 -47 -81 -89 -191 l-67 -173 -119 -34 c-146 -42
-299 -106 -427 -179 l-98 -55 -170 75 c-94 41 -181 75 -193 75 -31 0 -377
-346 -377 -377 0 -12 34 -99 75 -193 l76 -170 -39 -67 c-91 -157 -146 -285
-197 -462 l-33 -115 -173 -67 c-110 -42 -179 -74 -191 -89 -16 -20 -18 -45
-18 -260 0 -215 2 -240 18 -260 12 -15 81 -47 192 -90 l173 -66 17 -62 c21
-74 34 -92 70 -92 75 0 87 30 59 148 -11 48 -27 94 -34 102 -8 8 -90 44 -184
80 l-171 65 0 175 0 175 168 64 c92 35 175 70 184 78 9 8 24 47 33 85 42 185
130 401 228 558 26 41 47 81 47 90 0 8 -34 91 -75 185 l-76 169 124 123 123
124 169 -76 c94 -41 177 -75 185 -75 9 0 48 20 87 45 158 98 339 174 525 221
57 14 110 32 118 39 8 8 44 90 80 184 l65 171 175 0 175 0 65 -171 c36 -94 72
-176 80 -184 8 -7 54 -23 102 -34 118 -28 148 -16 148 59 0 36 -18 49 -92 70
l-62 17 -66 173 c-43 111 -75 180 -90 192 -20 16 -45 18 -260 18 -215 0 -240
-2 -260 -18z"/>
<path d="M2405 4029 c-211 -22 -457 -107 -629 -217 -176 -112 -354 -291 -468
-468 -163 -253 -248 -605 -219 -907 12 -128 44 -283 67 -329 27 -52 107 -46
120 8 4 15 -2 65 -14 118 -49 211 -52 398 -12 596 106 520 520 934 1041 1040
200 41 380 37 595 -12 53 -12 103 -18 118 -14 54 13 60 93 8 120 -42 21 -197
54 -311 66 -116 11 -179 11 -296 -1z"/>
<path d="M4330 3110 c-11 -11 -20 -24 -20 -29 0 -29 44 -188 55 -201 8 -8 90
-44 184 -80 l171 -65 0 -175 0 -175 -171 -65 c-94 -36 -176 -72 -184 -80 -7
-8 -25 -61 -39 -118 -47 -186 -123 -367 -221 -525 -25 -39 -45 -78 -45 -87 0
-8 34 -91 75 -185 l76 -169 -124 -123 -123 -124 -169 76 c-94 41 -177 75 -185
75 -9 0 -48 -20 -87 -45 -158 -98 -339 -174 -525 -221 -57 -14 -110 -32 -118
-39 -8 -8 -44 -90 -80 -184 l-65 -171 -175 0 -175 0 -65 171 c-36 94 -72 176
-80 184 -8 7 -54 23 -102 34 -118 28 -148 16 -148 -59 0 -36 18 -49 92 -70
l62 -17 66 -173 c43 -111 75 -180 90 -192 20 -16 45 -18 260 -18 215 0 240 2
260 18 15 12 47 81 89 191 l67 173 117 34 c169 48 333 119 469 201 l58 34 170
-75 c94 -42 180 -76 193 -76 31 0 377 346 377 377 0 12 -34 99 -75 192 l-75
170 55 98 c73 129 137 282 178 428 l35 118 173 67 c109 43 179 75 191 90 16
20 18 45 18 260 0 215 -2 240 -18 260 -12 15 -82 47 -192 90 l-174 67 -16 61
c-9 34 -23 68 -30 77 -18 22 -76 19 -100 -5z"/>
<path d="M3859 3029 c-25 -25 -24 -45 12 -204 32 -142 32 -385 1 -532 -87
-404 -339 -737 -698 -920 -299 -153 -602 -189 -940 -111 -53 12 -103 18 -118
14 -54 -13 -60 -93 -8 -120 96 -48 392 -84 565 -68 375 36 668 172 927 432
259 259 395 549 432 924 16 167 -14 437 -64 559 -20 50 -73 62 -109 26z"/>
</g>
</svg>
