<?xml version="1.0" standalone="no"?>
<!DOCTYPE svg PUBLIC "-//W3C//DTD SVG 20010904//EN"
 "http://www.w3.org/TR/2001/REC-SVG-20010904/DTD/svg10.dtd">
<svg version="1.0" xmlns="http://www.w3.org/2000/svg"
 width="512.000000pt" height="512.000000pt" viewBox="0 0 512.000000 512.000000"
 preserveAspectRatio="xMidYMid meet">

<g transform="translate(0.000000,512.000000) scale(0.100000,-0.100000)"
fill="#000000" stroke="none">
<path d="M2315 5109 c-800 -83 -1501 -518 -1927 -1196 -487 -774 -516 -1777
-75 -2578 200 -364 487 -676 841 -913 238 -159 600 -311 876 -366 214 -43 295
-51 530 -51 236 0 333 10 532 51 880 184 1615 842 1898 1702 92 278 125 491
125 802 0 301 -32 513 -116 775 -124 390 -330 728 -622 1024 -399 404 -893
653 -1462 737 -123 18 -478 26 -600 13z m524 -655 c415 -61 782 -241 1085
-534 327 -316 529 -723 585 -1180 14 -109 14 -351 1 -460 -91 -729 -575 -1348
-1258 -1606 -77 -29 -141 -31 -173 -5 l-24 19 -6 359 c-6 404 -11 435 -87 544
l-38 54 105 18 c245 40 408 114 541 247 133 133 202 287 230 512 15 120 8 321
-14 403 -22 82 -77 191 -130 259 l-44 57 15 47 c33 110 26 289 -16 415 l-18
52 -58 3 c-97 5 -255 -54 -421 -160 l-63 -39 -58 15 c-246 63 -620 63 -866 0
l-58 -15 -63 39 c-166 106 -324 165 -421 160 l-58 -3 -18 -52 c-42 -126 -49
-305 -15 -415 l14 -48 -38 -47 c-52 -66 -104 -165 -130 -248 -29 -90 -38 -296
-20 -428 30 -225 99 -377 230 -507 72 -73 101 -94 190 -138 116 -57 233 -94
361 -113 46 -7 85 -13 87 -15 2 -1 -12 -25 -31 -53 -34 -48 -77 -157 -77 -192
0 -35 -161 -76 -264 -66 -124 12 -219 73 -299 195 -102 154 -249 241 -358 212
-62 -17 -52 -53 30 -109 94 -65 156 -145 216 -279 69 -155 190 -239 376 -263
73 -9 231 1 273 17 14 5 16 -16 16 -200 l0 -207 -26 -26 c-39 -39 -109 -30
-256 34 -646 280 -1091 874 -1178 1573 -13 109 -13 351 1 460 46 373 193 721
426 1010 71 88 233 246 318 311 269 206 589 343 915 393 132 20 435 20 569 0z
m-1515 -2770 c9 -3 16 -13 16 -21 0 -21 -44 -12 -48 10 -4 18 6 21 32 11z m95
-82 c5 -10 6 -24 2 -31 -12 -19 -51 4 -51 29 0 26 36 27 49 2z m75 -103 c16
-24 11 -49 -10 -49 -18 0 -44 39 -37 56 8 20 30 17 47 -7z m101 -109 c20 -23
14 -50 -13 -50 -25 0 -42 19 -42 47 0 29 30 31 55 3z m143 -82 c18 -18 15 -36
-8 -43 -26 -8 -60 11 -60 35 0 15 7 20 28 20 15 0 33 -5 40 -12z m312 -3 c17
-20 -3 -45 -37 -45 -31 0 -42 29 -18 46 24 18 40 18 55 -1z m-150 -20 c10 -12
10 -18 0 -31 -18 -21 -64 -14 -68 10 -7 33 45 49 68 21z"/>
</g>
</svg>
