<?xml version="1.0" standalone="no"?>
<!DOCTYPE svg PUBLIC "-//W3C//DTD SVG 20010904//EN"
 "http://www.w3.org/TR/2001/REC-SVG-20010904/DTD/svg10.dtd">
<svg version="1.0" xmlns="http://www.w3.org/2000/svg"
 width="512.000000pt" height="512.000000pt" viewBox="0 0 512.000000 512.000000"
 preserveAspectRatio="xMidYMid meet">

<g transform="translate(0.000000,512.000000) scale(0.100000,-0.100000)"
fill="#000000" stroke="none">
<path d="M291 4929 c-108 -21 -203 -95 -253 -197 l-33 -67 0 -1670 0 -1670 29
-59 c37 -76 101 -140 174 -174 l57 -27 869 -3 c819 -2 868 -3 861 -20 -3 -9
-87 -157 -186 -329 -101 -175 -183 -328 -186 -348 -9 -55 21 -121 70 -153 l41
-27 826 0 826 0 41 27 c49 32 79 98 70 153 -3 20 -85 173 -186 348 -99 172
-183 320 -186 329 -7 17 42 18 861 20 l869 3 57 27 c73 34 137 98 174 174 l29
59 0 1670 0 1670 -33 67 c-39 80 -111 148 -192 181 l-55 22 -2250 1 c-1237 1
-2270 -2 -2294 -7z m4493 -325 c14 -14 16 -151 16 -1365 l0 -1349 -2240 0
-2240 0 0 1349 c0 1214 2 1351 16 1365 14 14 230 16 2224 16 1994 0 2210 -2
2224 -16z m16 -3117 c0 -51 -5 -88 -12 -95 -17 -17 -4439 -17 -4456 0 -7 7
-12 44 -12 95 l0 83 2240 0 2240 0 0 -83z m-1898 -706 c87 -150 158 -275 158
-277 0 -2 -225 -4 -500 -4 -275 0 -500 2 -500 4 0 4 280 491 306 534 15 22 17
22 196 20 l182 -3 158 -274z"/>
<path d="M2748 4418 c-22 -12 -46 -38 -58 -62 -11 -23 -142 -513 -291 -1091
-294 -1143 -285 -1095 -228 -1160 38 -43 78 -59 138 -53 60 6 102 35 124 85 9
21 139 511 288 1088 262 1013 271 1052 259 1095 -27 105 -138 152 -232 98z"/>
<path d="M1826 4095 c-30 -11 -127 -101 -408 -382 -202 -202 -375 -382 -383
-400 -19 -40 -19 -96 0 -137 8 -17 183 -199 388 -403 411 -410 411 -410 499
-384 84 26 129 101 113 189 -6 32 -48 78 -316 347 -170 171 -309 315 -309 320
0 6 135 145 301 310 166 165 307 314 315 332 54 125 -72 255 -200 208z"/>
<path d="M3204 4100 c-49 -11 -90 -46 -108 -90 -20 -50 -20 -81 -2 -123 8 -18
149 -167 315 -332 166 -165 301 -304 301 -310 0 -5 -139 -149 -309 -320 -333
-334 -333 -333 -317 -420 9 -46 62 -100 114 -115 88 -27 88 -27 499 383 205
204 380 386 388 403 18 37 19 91 4 131 -11 31 -730 757 -769 777 -35 18 -80
24 -116 16z"/>
</g>
</svg>
